<mxfile host="Electron" modified="2024-11-23T18:53:31.144Z" agent="Mozilla/5.0 (Windows NT 10.0; Win64; x64) AppleWebKit/537.36 (KHTML, like Gecko) draw.io/24.2.5 Chrome/120.0.6099.109 Electron/28.1.0 Safari/537.36" etag="pLRAFzpANOe1FKQ5DBm_" version="24.2.5" type="device">
  <diagram name="Page-1" id="58cdce13-f638-feb5-8d6f-7d28b1aa9fa0">
    <mxGraphModel dx="2571" dy="1788" grid="1" gridSize="10" guides="1" tooltips="1" connect="1" arrows="1" fold="1" page="1" pageScale="1" pageWidth="1100" pageHeight="850" background="none" math="0" shadow="0">
      <root>
        <mxCell id="0" />
        <mxCell id="1" parent="0" />
        <mxCell id="5-WY05o-0gEn9RTZ0vw3-115" style="edgeStyle=none;rounded=0;orthogonalLoop=1;jettySize=auto;html=1;exitX=0.5;exitY=1;exitDx=0;exitDy=0;entryX=0.5;entryY=0;entryDx=0;entryDy=0;dashed=1;strokeColor=default;align=center;verticalAlign=middle;fontFamily=Helvetica;fontSize=11;fontColor=default;labelBackgroundColor=default;endArrow=classic;strokeWidth=2;" edge="1" parent="1" source="5-WY05o-0gEn9RTZ0vw3-112" target="5-WY05o-0gEn9RTZ0vw3-102">
          <mxGeometry relative="1" as="geometry" />
        </mxCell>
        <mxCell id="5-WY05o-0gEn9RTZ0vw3-112" value="queue&lt;div&gt;&lt;br&gt;&lt;/div&gt;&lt;div&gt;&lt;br&gt;&lt;/div&gt;&lt;div&gt;&lt;br&gt;&lt;/div&gt;&lt;div&gt;&lt;br&gt;&lt;/div&gt;" style="html=1;whiteSpace=wrap;horizontal=1;dashed=1;" vertex="1" parent="1">
          <mxGeometry x="880" y="610" width="80" height="70" as="geometry" />
        </mxCell>
        <mxCell id="5-WY05o-0gEn9RTZ0vw3-1" value="periodic task" style="html=1;whiteSpace=wrap;" vertex="1" parent="1">
          <mxGeometry x="200" y="20" width="160" height="70" as="geometry" />
        </mxCell>
        <mxCell id="5-WY05o-0gEn9RTZ0vw3-3" value="&lt;span style=&quot;font-family: &amp;quot;Segoe UI&amp;quot;; text-align: left; white-space-collapse: preserve; background-color: rgb(255, 255, 255);&quot;&gt;Leading RT-thread  (2)&lt;/span&gt;" style="text;html=1;align=center;verticalAlign=middle;whiteSpace=wrap;rounded=0;fontFamily=Helvetica;fontSize=12;fontColor=default;fontStyle=0" vertex="1" parent="1">
          <mxGeometry x="-30" y="35" width="140" height="30" as="geometry" />
        </mxCell>
        <mxCell id="5-WY05o-0gEn9RTZ0vw3-4" value="&lt;span style=&quot;background-color:#ffffff;padding:0px 0px 0px 4px;&quot;&gt;&lt;span style=&quot;font-family: &amp;quot;Segoe UI&amp;quot;; font-size: 9pt; white-space-collapse: preserve;&quot;&gt;CANopen trailing RT-thread (3.1)&lt;/span&gt;&lt;/span&gt;" style="text;html=1;align=center;verticalAlign=middle;whiteSpace=wrap;rounded=0;" vertex="1" parent="1">
          <mxGeometry x="-20" y="230" width="140" height="30" as="geometry" />
        </mxCell>
        <mxCell id="5-WY05o-0gEn9RTZ0vw3-5" value="periodic task" style="html=1;whiteSpace=wrap;" vertex="1" parent="1">
          <mxGeometry x="200" y="200" width="80" height="70" as="geometry" />
        </mxCell>
        <mxCell id="5-WY05o-0gEn9RTZ0vw3-6" value="sync&amp;nbsp;&lt;span style=&quot;background-color: initial;&quot;&gt;code&amp;nbsp;&lt;/span&gt;&lt;div&gt;(leading)&lt;/div&gt;" style="html=1;whiteSpace=wrap;horizontal=0;" vertex="1" parent="1">
          <mxGeometry x="120" y="20" width="40" height="70" as="geometry" />
        </mxCell>
        <mxCell id="5-WY05o-0gEn9RTZ0vw3-8" value="sync&amp;nbsp;&lt;span style=&quot;background-color: initial;&quot;&gt;code&amp;nbsp;&lt;/span&gt;&lt;div&gt;(trailing)&lt;/div&gt;" style="html=1;whiteSpace=wrap;horizontal=0;" vertex="1" parent="1">
          <mxGeometry x="120" y="200" width="40" height="70" as="geometry" />
        </mxCell>
        <mxCell id="5-WY05o-0gEn9RTZ0vw3-9" value="read queue1" style="html=1;whiteSpace=wrap;horizontal=0;" vertex="1" parent="1">
          <mxGeometry x="160" y="20" width="40" height="70" as="geometry" />
        </mxCell>
        <mxCell id="5-WY05o-0gEn9RTZ0vw3-32" style="edgeStyle=none;rounded=0;orthogonalLoop=1;jettySize=auto;html=1;exitX=0.5;exitY=1;exitDx=0;exitDy=0;entryX=0.5;entryY=0;entryDx=0;entryDy=0;dashed=1;strokeColor=default;align=center;verticalAlign=middle;fontFamily=Helvetica;fontSize=11;fontColor=default;labelBackgroundColor=default;endArrow=classic;strokeWidth=2;" edge="1" parent="1" source="5-WY05o-0gEn9RTZ0vw3-11" target="5-WY05o-0gEn9RTZ0vw3-28">
          <mxGeometry relative="1" as="geometry" />
        </mxCell>
        <mxCell id="5-WY05o-0gEn9RTZ0vw3-33" value="data" style="edgeLabel;html=1;align=center;verticalAlign=middle;resizable=0;points=[];fontFamily=Helvetica;fontSize=11;fontColor=default;labelBackgroundColor=default;" vertex="1" connectable="0" parent="5-WY05o-0gEn9RTZ0vw3-32">
          <mxGeometry x="0.116" y="-1" relative="1" as="geometry">
            <mxPoint as="offset" />
          </mxGeometry>
        </mxCell>
        <mxCell id="5-WY05o-0gEn9RTZ0vw3-11" value="write queue2" style="html=1;whiteSpace=wrap;horizontal=0;" vertex="1" parent="1">
          <mxGeometry x="360" y="20" width="40" height="70" as="geometry" />
        </mxCell>
        <mxCell id="5-WY05o-0gEn9RTZ0vw3-12" value="read queue2" style="html=1;whiteSpace=wrap;horizontal=0;" vertex="1" parent="1">
          <mxGeometry x="160" y="200" width="40" height="70" as="geometry" />
        </mxCell>
        <mxCell id="5-WY05o-0gEn9RTZ0vw3-30" style="rounded=0;orthogonalLoop=1;jettySize=auto;html=1;exitX=0.5;exitY=0;exitDx=0;exitDy=0;entryX=0.5;entryY=1;entryDx=0;entryDy=0;dashed=1;strokeWidth=2;" edge="1" parent="1" source="5-WY05o-0gEn9RTZ0vw3-13" target="5-WY05o-0gEn9RTZ0vw3-26">
          <mxGeometry relative="1" as="geometry" />
        </mxCell>
        <mxCell id="5-WY05o-0gEn9RTZ0vw3-31" value="data" style="edgeLabel;html=1;align=center;verticalAlign=middle;resizable=0;points=[];fontFamily=Helvetica;fontSize=11;fontColor=default;labelBackgroundColor=default;" vertex="1" connectable="0" parent="5-WY05o-0gEn9RTZ0vw3-30">
          <mxGeometry x="0.0591" y="1" relative="1" as="geometry">
            <mxPoint as="offset" />
          </mxGeometry>
        </mxCell>
        <mxCell id="5-WY05o-0gEn9RTZ0vw3-13" value="write&lt;div&gt;queue1&lt;/div&gt;" style="html=1;whiteSpace=wrap;horizontal=0;" vertex="1" parent="1">
          <mxGeometry x="280" y="200" width="40" height="70" as="geometry" />
        </mxCell>
        <mxCell id="5-WY05o-0gEn9RTZ0vw3-14" value="" style="endArrow=classic;html=1;rounded=0;" edge="1" parent="1">
          <mxGeometry width="50" height="50" relative="1" as="geometry">
            <mxPoint x="-50" y="330" as="sourcePoint" />
            <mxPoint x="1210" y="330" as="targetPoint" />
          </mxGeometry>
        </mxCell>
        <mxCell id="5-WY05o-0gEn9RTZ0vw3-19" value="&lt;font style=&quot;font-size: 21px;&quot;&gt;t&lt;/font&gt;" style="edgeLabel;html=1;align=center;verticalAlign=middle;resizable=0;points=[];" vertex="1" connectable="0" parent="5-WY05o-0gEn9RTZ0vw3-14">
          <mxGeometry x="-0.0213" relative="1" as="geometry">
            <mxPoint as="offset" />
          </mxGeometry>
        </mxCell>
        <mxCell id="5-WY05o-0gEn9RTZ0vw3-20" value="periodic task" style="html=1;whiteSpace=wrap;" vertex="1" parent="1">
          <mxGeometry x="560" y="20" width="160" height="70" as="geometry" />
        </mxCell>
        <mxCell id="5-WY05o-0gEn9RTZ0vw3-23" value="periodic task" style="html=1;whiteSpace=wrap;" vertex="1" parent="1">
          <mxGeometry x="560" y="200" width="70" height="70" as="geometry" />
        </mxCell>
        <mxCell id="5-WY05o-0gEn9RTZ0vw3-24" value="sync&amp;nbsp;&lt;span style=&quot;background-color: initial;&quot;&gt;code&amp;nbsp;&lt;/span&gt;&lt;div&gt;(leading)&lt;/div&gt;" style="html=1;whiteSpace=wrap;horizontal=0;" vertex="1" parent="1">
          <mxGeometry x="480" y="20" width="40" height="70" as="geometry" />
        </mxCell>
        <mxCell id="5-WY05o-0gEn9RTZ0vw3-25" value="sync&amp;nbsp;&lt;span style=&quot;background-color: initial;&quot;&gt;code&amp;nbsp;&lt;/span&gt;&lt;div&gt;(trailing)&lt;/div&gt;" style="html=1;whiteSpace=wrap;horizontal=0;" vertex="1" parent="1">
          <mxGeometry x="480" y="200" width="40" height="70" as="geometry" />
        </mxCell>
        <mxCell id="5-WY05o-0gEn9RTZ0vw3-26" value="read queue1" style="html=1;whiteSpace=wrap;horizontal=0;" vertex="1" parent="1">
          <mxGeometry x="520" y="20" width="40" height="70" as="geometry" />
        </mxCell>
        <mxCell id="5-WY05o-0gEn9RTZ0vw3-42" style="edgeStyle=none;rounded=0;orthogonalLoop=1;jettySize=auto;html=1;exitX=0.5;exitY=1;exitDx=0;exitDy=0;entryX=0.5;entryY=0;entryDx=0;entryDy=0;dashed=1;strokeColor=default;align=center;verticalAlign=middle;fontFamily=Helvetica;fontSize=11;fontColor=default;labelBackgroundColor=default;endArrow=classic;strokeWidth=2;" edge="1" parent="1" source="5-WY05o-0gEn9RTZ0vw3-27" target="5-WY05o-0gEn9RTZ0vw3-56">
          <mxGeometry relative="1" as="geometry">
            <mxPoint x="1140" y="210" as="targetPoint" />
          </mxGeometry>
        </mxCell>
        <mxCell id="5-WY05o-0gEn9RTZ0vw3-45" value="data" style="edgeLabel;html=1;align=center;verticalAlign=middle;resizable=0;points=[];fontFamily=Helvetica;fontSize=11;fontColor=default;labelBackgroundColor=default;" vertex="1" connectable="0" parent="5-WY05o-0gEn9RTZ0vw3-42">
          <mxGeometry x="0.0926" y="-1" relative="1" as="geometry">
            <mxPoint x="1" as="offset" />
          </mxGeometry>
        </mxCell>
        <mxCell id="5-WY05o-0gEn9RTZ0vw3-27" value="write queue2" style="html=1;whiteSpace=wrap;horizontal=0;" vertex="1" parent="1">
          <mxGeometry x="720" y="20" width="40" height="70" as="geometry" />
        </mxCell>
        <mxCell id="5-WY05o-0gEn9RTZ0vw3-28" value="read queue2" style="html=1;whiteSpace=wrap;horizontal=0;" vertex="1" parent="1">
          <mxGeometry x="520" y="200" width="40" height="70" as="geometry" />
        </mxCell>
        <mxCell id="5-WY05o-0gEn9RTZ0vw3-43" style="edgeStyle=none;rounded=0;orthogonalLoop=1;jettySize=auto;html=1;exitX=0.5;exitY=0;exitDx=0;exitDy=0;entryX=0.5;entryY=1;entryDx=0;entryDy=0;dashed=1;strokeColor=default;align=center;verticalAlign=middle;fontFamily=Helvetica;fontSize=11;fontColor=default;labelBackgroundColor=default;endArrow=classic;strokeWidth=2;" edge="1" parent="1" source="5-WY05o-0gEn9RTZ0vw3-29" target="5-WY05o-0gEn9RTZ0vw3-52">
          <mxGeometry relative="1" as="geometry">
            <mxPoint x="1140" y="90" as="targetPoint" />
          </mxGeometry>
        </mxCell>
        <mxCell id="5-WY05o-0gEn9RTZ0vw3-44" value="data" style="edgeLabel;html=1;align=center;verticalAlign=middle;resizable=0;points=[];fontFamily=Helvetica;fontSize=11;fontColor=default;labelBackgroundColor=default;" vertex="1" connectable="0" parent="5-WY05o-0gEn9RTZ0vw3-43">
          <mxGeometry x="-0.0214" y="1" relative="1" as="geometry">
            <mxPoint as="offset" />
          </mxGeometry>
        </mxCell>
        <mxCell id="5-WY05o-0gEn9RTZ0vw3-29" value="write&lt;div&gt;queue1&lt;/div&gt;" style="html=1;whiteSpace=wrap;horizontal=0;" vertex="1" parent="1">
          <mxGeometry x="630" y="200" width="40" height="70" as="geometry" />
        </mxCell>
        <mxCell id="5-WY05o-0gEn9RTZ0vw3-50" value="periodic task" style="html=1;whiteSpace=wrap;" vertex="1" parent="1">
          <mxGeometry x="920" y="20" width="160" height="70" as="geometry" />
        </mxCell>
        <mxCell id="5-WY05o-0gEn9RTZ0vw3-51" value="sync&amp;nbsp;&lt;span style=&quot;background-color: initial;&quot;&gt;code&amp;nbsp;&lt;/span&gt;&lt;div&gt;(leading)&lt;/div&gt;" style="html=1;whiteSpace=wrap;horizontal=0;" vertex="1" parent="1">
          <mxGeometry x="840" y="20" width="40" height="70" as="geometry" />
        </mxCell>
        <mxCell id="5-WY05o-0gEn9RTZ0vw3-52" value="read queue1" style="html=1;whiteSpace=wrap;horizontal=0;" vertex="1" parent="1">
          <mxGeometry x="880" y="20" width="40" height="70" as="geometry" />
        </mxCell>
        <mxCell id="5-WY05o-0gEn9RTZ0vw3-53" value="write queue2" style="html=1;whiteSpace=wrap;horizontal=0;" vertex="1" parent="1">
          <mxGeometry x="1080" y="20" width="40" height="70" as="geometry" />
        </mxCell>
        <mxCell id="5-WY05o-0gEn9RTZ0vw3-54" value="periodic task" style="html=1;whiteSpace=wrap;" vertex="1" parent="1">
          <mxGeometry x="920" y="200" width="70" height="70" as="geometry" />
        </mxCell>
        <mxCell id="5-WY05o-0gEn9RTZ0vw3-55" value="sync&amp;nbsp;&lt;span style=&quot;background-color: initial;&quot;&gt;code&amp;nbsp;&lt;/span&gt;&lt;div&gt;(trailing)&lt;/div&gt;" style="html=1;whiteSpace=wrap;horizontal=0;" vertex="1" parent="1">
          <mxGeometry x="840" y="200" width="40" height="70" as="geometry" />
        </mxCell>
        <mxCell id="5-WY05o-0gEn9RTZ0vw3-56" value="read queue2" style="html=1;whiteSpace=wrap;horizontal=0;" vertex="1" parent="1">
          <mxGeometry x="880" y="200" width="40" height="70" as="geometry" />
        </mxCell>
        <mxCell id="5-WY05o-0gEn9RTZ0vw3-57" value="write&lt;div&gt;queue1&lt;/div&gt;" style="html=1;whiteSpace=wrap;horizontal=0;" vertex="1" parent="1">
          <mxGeometry x="990" y="200" width="40" height="70" as="geometry" />
        </mxCell>
        <mxCell id="5-WY05o-0gEn9RTZ0vw3-58" value="" style="endArrow=none;dashed=1;html=1;dashPattern=1 3;strokeWidth=2;rounded=0;strokeColor=default;align=center;verticalAlign=middle;fontFamily=Helvetica;fontSize=11;fontColor=default;labelBackgroundColor=default;" edge="1" parent="1">
          <mxGeometry width="50" height="50" relative="1" as="geometry">
            <mxPoint x="120" y="360" as="sourcePoint" />
            <mxPoint x="120" y="-50" as="targetPoint" />
          </mxGeometry>
        </mxCell>
        <mxCell id="5-WY05o-0gEn9RTZ0vw3-59" value="" style="endArrow=none;dashed=1;html=1;dashPattern=1 3;strokeWidth=2;rounded=0;strokeColor=default;align=center;verticalAlign=middle;fontFamily=Helvetica;fontSize=11;fontColor=default;labelBackgroundColor=default;" edge="1" parent="1">
          <mxGeometry width="50" height="50" relative="1" as="geometry">
            <mxPoint x="480" y="360" as="sourcePoint" />
            <mxPoint x="480" y="-50" as="targetPoint" />
          </mxGeometry>
        </mxCell>
        <mxCell id="5-WY05o-0gEn9RTZ0vw3-60" value="" style="endArrow=none;dashed=1;html=1;dashPattern=1 3;strokeWidth=2;rounded=0;strokeColor=default;align=center;verticalAlign=middle;fontFamily=Helvetica;fontSize=11;fontColor=default;labelBackgroundColor=default;" edge="1" parent="1">
          <mxGeometry width="50" height="50" relative="1" as="geometry">
            <mxPoint x="838.8199999999999" y="360" as="sourcePoint" />
            <mxPoint x="839" y="-50" as="targetPoint" />
          </mxGeometry>
        </mxCell>
        <mxCell id="5-WY05o-0gEn9RTZ0vw3-61" value="" style="endArrow=classic;startArrow=classic;html=1;rounded=0;dashed=1;strokeColor=default;align=center;verticalAlign=middle;fontFamily=Helvetica;fontSize=11;fontColor=default;labelBackgroundColor=default;" edge="1" parent="1">
          <mxGeometry width="50" height="50" relative="1" as="geometry">
            <mxPoint x="480" y="-30" as="sourcePoint" />
            <mxPoint x="840" y="-30" as="targetPoint" />
          </mxGeometry>
        </mxCell>
        <mxCell id="5-WY05o-0gEn9RTZ0vw3-66" value="&lt;span style=&quot;font-size: 11px;&quot;&gt;threads period tasks T&lt;/span&gt;" style="edgeLabel;html=1;align=center;verticalAlign=middle;resizable=0;points=[];fontFamily=Helvetica;fontSize=11;fontColor=default;labelBackgroundColor=default;" vertex="1" connectable="0" parent="5-WY05o-0gEn9RTZ0vw3-61">
          <mxGeometry x="0.0469" y="1" relative="1" as="geometry">
            <mxPoint as="offset" />
          </mxGeometry>
        </mxCell>
        <mxCell id="5-WY05o-0gEn9RTZ0vw3-62" value="" style="endArrow=classic;startArrow=classic;html=1;rounded=0;dashed=1;strokeColor=default;align=center;verticalAlign=middle;fontFamily=Helvetica;fontSize=11;fontColor=default;labelBackgroundColor=default;" edge="1" parent="1">
          <mxGeometry width="50" height="50" relative="1" as="geometry">
            <mxPoint x="120" y="-30" as="sourcePoint" />
            <mxPoint x="480" y="-30" as="targetPoint" />
          </mxGeometry>
        </mxCell>
        <mxCell id="5-WY05o-0gEn9RTZ0vw3-63" value="&lt;font style=&quot;font-size: 11px;&quot;&gt;threads period tasks T&lt;/font&gt;" style="edgeLabel;html=1;align=center;verticalAlign=middle;resizable=0;points=[];fontFamily=Helvetica;fontSize=11;fontColor=default;labelBackgroundColor=default;rounded=0;fontStyle=0;fillColor=none;gradientColor=none;" vertex="1" connectable="0" parent="5-WY05o-0gEn9RTZ0vw3-62">
          <mxGeometry x="-0.0798" y="-1" relative="1" as="geometry">
            <mxPoint as="offset" />
          </mxGeometry>
        </mxCell>
        <mxCell id="5-WY05o-0gEn9RTZ0vw3-67" value="&lt;font style=&quot;font-size: 21px;&quot; face=&quot;Segoe UI&quot;&gt;&lt;span style=&quot;white-space-collapse: preserve; background-color: rgb(255, 255, 255); font-size: 21px;&quot;&gt;HARD-REALTIME scenario&lt;/span&gt;&lt;/font&gt;&lt;div&gt;&lt;font style=&quot;font-size: 21px;&quot; face=&quot;Segoe UI&quot;&gt;&lt;span style=&quot;white-space-collapse: preserve; background-color: rgb(255, 255, 255); font-size: 21px;&quot;&gt;(better case)&lt;/span&gt;&lt;/font&gt;&lt;/div&gt;" style="text;html=1;align=center;verticalAlign=middle;whiteSpace=wrap;rounded=0;fontFamily=Helvetica;fontSize=21;fontColor=default;fontStyle=1" vertex="1" parent="1">
          <mxGeometry x="-20" y="-90" width="260" height="30" as="geometry" />
        </mxCell>
        <mxCell id="5-WY05o-0gEn9RTZ0vw3-68" value="periodic task" style="html=1;whiteSpace=wrap;" vertex="1" parent="1">
          <mxGeometry x="200" y="520" width="160" height="70" as="geometry" />
        </mxCell>
        <mxCell id="5-WY05o-0gEn9RTZ0vw3-69" value="&lt;span style=&quot;font-family: &amp;quot;Segoe UI&amp;quot;; text-align: left; white-space-collapse: preserve; background-color: rgb(255, 255, 255);&quot;&gt;Leading RT-thread  (2)&lt;/span&gt;" style="text;html=1;align=center;verticalAlign=middle;whiteSpace=wrap;rounded=0;fontFamily=Helvetica;fontSize=12;fontColor=default;fontStyle=0" vertex="1" parent="1">
          <mxGeometry x="-30" y="535" width="140" height="30" as="geometry" />
        </mxCell>
        <mxCell id="5-WY05o-0gEn9RTZ0vw3-70" value="&lt;span style=&quot;background-color:#ffffff;padding:0px 0px 0px 4px;&quot;&gt;&lt;span style=&quot;font-family: &amp;quot;Segoe UI&amp;quot;; font-size: 9pt; white-space-collapse: preserve;&quot;&gt;CANopen trailing RT-thread (3.1)&lt;/span&gt;&lt;/span&gt;" style="text;html=1;align=center;verticalAlign=middle;whiteSpace=wrap;rounded=0;" vertex="1" parent="1">
          <mxGeometry x="-20" y="730" width="140" height="30" as="geometry" />
        </mxCell>
        <mxCell id="5-WY05o-0gEn9RTZ0vw3-71" value="periodic task" style="html=1;whiteSpace=wrap;" vertex="1" parent="1">
          <mxGeometry x="220" y="700" width="80" height="70" as="geometry" />
        </mxCell>
        <mxCell id="5-WY05o-0gEn9RTZ0vw3-72" value="sync&amp;nbsp;&lt;span style=&quot;background-color: initial;&quot;&gt;code&amp;nbsp;&lt;/span&gt;&lt;div&gt;(leading)&lt;/div&gt;" style="html=1;whiteSpace=wrap;horizontal=0;" vertex="1" parent="1">
          <mxGeometry x="120" y="520" width="40" height="70" as="geometry" />
        </mxCell>
        <mxCell id="5-WY05o-0gEn9RTZ0vw3-73" value="sync&amp;nbsp;&lt;span style=&quot;background-color: initial;&quot;&gt;code&amp;nbsp;&lt;/span&gt;&lt;div&gt;(trailing)&lt;/div&gt;" style="html=1;whiteSpace=wrap;horizontal=0;" vertex="1" parent="1">
          <mxGeometry x="140" y="700" width="40" height="70" as="geometry" />
        </mxCell>
        <mxCell id="5-WY05o-0gEn9RTZ0vw3-74" value="read queue1" style="html=1;whiteSpace=wrap;horizontal=0;" vertex="1" parent="1">
          <mxGeometry x="160" y="520" width="40" height="70" as="geometry" />
        </mxCell>
        <mxCell id="5-WY05o-0gEn9RTZ0vw3-75" style="edgeStyle=none;rounded=0;orthogonalLoop=1;jettySize=auto;html=1;exitX=0.5;exitY=1;exitDx=0;exitDy=0;dashed=1;strokeColor=default;align=center;verticalAlign=middle;fontFamily=Helvetica;fontSize=11;fontColor=default;labelBackgroundColor=default;endArrow=classic;strokeWidth=2;" edge="1" parent="1" source="5-WY05o-0gEn9RTZ0vw3-77" target="5-WY05o-0gEn9RTZ0vw3-114">
          <mxGeometry relative="1" as="geometry">
            <mxPoint x="890" y="660" as="targetPoint" />
          </mxGeometry>
        </mxCell>
        <mxCell id="5-WY05o-0gEn9RTZ0vw3-76" value="data" style="edgeLabel;html=1;align=center;verticalAlign=middle;resizable=0;points=[];fontFamily=Helvetica;fontSize=11;fontColor=default;labelBackgroundColor=default;" vertex="1" connectable="0" parent="5-WY05o-0gEn9RTZ0vw3-75">
          <mxGeometry x="0.116" y="-1" relative="1" as="geometry">
            <mxPoint as="offset" />
          </mxGeometry>
        </mxCell>
        <mxCell id="5-WY05o-0gEn9RTZ0vw3-77" value="write queue2" style="html=1;whiteSpace=wrap;horizontal=0;" vertex="1" parent="1">
          <mxGeometry x="360" y="520" width="40" height="70" as="geometry" />
        </mxCell>
        <mxCell id="5-WY05o-0gEn9RTZ0vw3-78" value="read queue2" style="html=1;whiteSpace=wrap;horizontal=0;" vertex="1" parent="1">
          <mxGeometry x="180" y="700" width="40" height="70" as="geometry" />
        </mxCell>
        <mxCell id="5-WY05o-0gEn9RTZ0vw3-79" style="rounded=0;orthogonalLoop=1;jettySize=auto;html=1;exitX=0.5;exitY=0;exitDx=0;exitDy=0;entryX=0.5;entryY=1;entryDx=0;entryDy=0;dashed=1;strokeWidth=2;" edge="1" parent="1" source="5-WY05o-0gEn9RTZ0vw3-81" target="5-WY05o-0gEn9RTZ0vw3-88">
          <mxGeometry relative="1" as="geometry" />
        </mxCell>
        <mxCell id="5-WY05o-0gEn9RTZ0vw3-80" value="data" style="edgeLabel;html=1;align=center;verticalAlign=middle;resizable=0;points=[];fontFamily=Helvetica;fontSize=11;fontColor=default;labelBackgroundColor=default;" vertex="1" connectable="0" parent="5-WY05o-0gEn9RTZ0vw3-79">
          <mxGeometry x="0.0591" y="1" relative="1" as="geometry">
            <mxPoint as="offset" />
          </mxGeometry>
        </mxCell>
        <mxCell id="5-WY05o-0gEn9RTZ0vw3-81" value="write&lt;div&gt;queue1&lt;/div&gt;" style="html=1;whiteSpace=wrap;horizontal=0;" vertex="1" parent="1">
          <mxGeometry x="300" y="700" width="40" height="70" as="geometry" />
        </mxCell>
        <mxCell id="5-WY05o-0gEn9RTZ0vw3-82" value="" style="endArrow=classic;html=1;rounded=0;" edge="1" parent="1">
          <mxGeometry width="50" height="50" relative="1" as="geometry">
            <mxPoint x="-50" y="830" as="sourcePoint" />
            <mxPoint x="1210" y="830" as="targetPoint" />
          </mxGeometry>
        </mxCell>
        <mxCell id="5-WY05o-0gEn9RTZ0vw3-83" value="&lt;font style=&quot;font-size: 21px;&quot;&gt;t&lt;/font&gt;" style="edgeLabel;html=1;align=center;verticalAlign=middle;resizable=0;points=[];" vertex="1" connectable="0" parent="5-WY05o-0gEn9RTZ0vw3-82">
          <mxGeometry x="-0.0213" relative="1" as="geometry">
            <mxPoint as="offset" />
          </mxGeometry>
        </mxCell>
        <mxCell id="5-WY05o-0gEn9RTZ0vw3-84" value="periodic task" style="html=1;whiteSpace=wrap;" vertex="1" parent="1">
          <mxGeometry x="560" y="520" width="160" height="70" as="geometry" />
        </mxCell>
        <mxCell id="5-WY05o-0gEn9RTZ0vw3-86" value="sync&amp;nbsp;&lt;span style=&quot;background-color: initial;&quot;&gt;code&amp;nbsp;&lt;/span&gt;&lt;div&gt;(leading)&lt;/div&gt;" style="html=1;whiteSpace=wrap;horizontal=0;" vertex="1" parent="1">
          <mxGeometry x="480" y="520" width="40" height="70" as="geometry" />
        </mxCell>
        <mxCell id="5-WY05o-0gEn9RTZ0vw3-88" value="read queue1" style="html=1;whiteSpace=wrap;horizontal=0;" vertex="1" parent="1">
          <mxGeometry x="520" y="520" width="40" height="70" as="geometry" />
        </mxCell>
        <mxCell id="5-WY05o-0gEn9RTZ0vw3-89" style="edgeStyle=none;rounded=0;orthogonalLoop=1;jettySize=auto;html=1;exitX=0.5;exitY=1;exitDx=0;exitDy=0;dashed=1;strokeColor=default;align=center;verticalAlign=middle;fontFamily=Helvetica;fontSize=11;fontColor=default;labelBackgroundColor=default;endArrow=classic;strokeWidth=2;" edge="1" parent="1" source="5-WY05o-0gEn9RTZ0vw3-91" target="5-WY05o-0gEn9RTZ0vw3-113">
          <mxGeometry relative="1" as="geometry">
            <mxPoint x="890" y="640" as="targetPoint" />
          </mxGeometry>
        </mxCell>
        <mxCell id="5-WY05o-0gEn9RTZ0vw3-90" value="data" style="edgeLabel;html=1;align=center;verticalAlign=middle;resizable=0;points=[];fontFamily=Helvetica;fontSize=11;fontColor=default;labelBackgroundColor=default;" vertex="1" connectable="0" parent="5-WY05o-0gEn9RTZ0vw3-89">
          <mxGeometry x="0.0926" y="-1" relative="1" as="geometry">
            <mxPoint x="1" as="offset" />
          </mxGeometry>
        </mxCell>
        <mxCell id="5-WY05o-0gEn9RTZ0vw3-91" value="write queue2" style="html=1;whiteSpace=wrap;horizontal=0;" vertex="1" parent="1">
          <mxGeometry x="720" y="520" width="40" height="70" as="geometry" />
        </mxCell>
        <mxCell id="5-WY05o-0gEn9RTZ0vw3-96" value="periodic task" style="html=1;whiteSpace=wrap;" vertex="1" parent="1">
          <mxGeometry x="920" y="520" width="160" height="70" as="geometry" />
        </mxCell>
        <mxCell id="5-WY05o-0gEn9RTZ0vw3-97" value="sync&amp;nbsp;&lt;span style=&quot;background-color: initial;&quot;&gt;code&amp;nbsp;&lt;/span&gt;&lt;div&gt;(leading)&lt;/div&gt;" style="html=1;whiteSpace=wrap;horizontal=0;" vertex="1" parent="1">
          <mxGeometry x="840" y="520" width="40" height="70" as="geometry" />
        </mxCell>
        <mxCell id="5-WY05o-0gEn9RTZ0vw3-98" value="&lt;font color=&quot;#ff0000&quot;&gt;read queue1 (try)&lt;/font&gt;" style="html=1;whiteSpace=wrap;horizontal=0;" vertex="1" parent="1">
          <mxGeometry x="880" y="520" width="40" height="70" as="geometry" />
        </mxCell>
        <mxCell id="5-WY05o-0gEn9RTZ0vw3-99" value="write queue2" style="html=1;whiteSpace=wrap;horizontal=0;" vertex="1" parent="1">
          <mxGeometry x="1080" y="520" width="40" height="70" as="geometry" />
        </mxCell>
        <mxCell id="5-WY05o-0gEn9RTZ0vw3-100" value="periodic task" style="html=1;whiteSpace=wrap;" vertex="1" parent="1">
          <mxGeometry x="945" y="700" width="70" height="70" as="geometry" />
        </mxCell>
        <mxCell id="5-WY05o-0gEn9RTZ0vw3-101" value="sync&amp;nbsp;&lt;span style=&quot;background-color: initial;&quot;&gt;code&amp;nbsp;&lt;/span&gt;&lt;div&gt;(trailing)&lt;/div&gt;" style="html=1;whiteSpace=wrap;horizontal=0;" vertex="1" parent="1">
          <mxGeometry x="850" y="700" width="40" height="70" as="geometry" />
        </mxCell>
        <mxCell id="5-WY05o-0gEn9RTZ0vw3-102" value="&lt;font color=&quot;#ff0000&quot;&gt;read queue2 twice&lt;/font&gt;" style="html=1;whiteSpace=wrap;horizontal=0;" vertex="1" parent="1">
          <mxGeometry x="890" y="700" width="60" height="70" as="geometry" />
        </mxCell>
        <mxCell id="5-WY05o-0gEn9RTZ0vw3-103" value="write&lt;div&gt;queue1&lt;/div&gt;" style="html=1;whiteSpace=wrap;horizontal=0;" vertex="1" parent="1">
          <mxGeometry x="1015" y="700" width="40" height="70" as="geometry" />
        </mxCell>
        <mxCell id="5-WY05o-0gEn9RTZ0vw3-104" value="" style="endArrow=none;dashed=1;html=1;dashPattern=1 3;strokeWidth=2;rounded=0;strokeColor=default;align=center;verticalAlign=middle;fontFamily=Helvetica;fontSize=11;fontColor=default;labelBackgroundColor=default;" edge="1" parent="1">
          <mxGeometry width="50" height="50" relative="1" as="geometry">
            <mxPoint x="120" y="860" as="sourcePoint" />
            <mxPoint x="120" y="450" as="targetPoint" />
          </mxGeometry>
        </mxCell>
        <mxCell id="5-WY05o-0gEn9RTZ0vw3-105" value="" style="endArrow=none;dashed=1;html=1;dashPattern=1 3;strokeWidth=2;rounded=0;strokeColor=default;align=center;verticalAlign=middle;fontFamily=Helvetica;fontSize=11;fontColor=default;labelBackgroundColor=default;" edge="1" parent="1">
          <mxGeometry width="50" height="50" relative="1" as="geometry">
            <mxPoint x="480" y="860" as="sourcePoint" />
            <mxPoint x="480" y="450" as="targetPoint" />
          </mxGeometry>
        </mxCell>
        <mxCell id="5-WY05o-0gEn9RTZ0vw3-106" value="" style="endArrow=none;dashed=1;html=1;dashPattern=1 3;strokeWidth=2;rounded=0;strokeColor=default;align=center;verticalAlign=middle;fontFamily=Helvetica;fontSize=11;fontColor=default;labelBackgroundColor=default;" edge="1" parent="1">
          <mxGeometry width="50" height="50" relative="1" as="geometry">
            <mxPoint x="838.8199999999999" y="860" as="sourcePoint" />
            <mxPoint x="839" y="450" as="targetPoint" />
          </mxGeometry>
        </mxCell>
        <mxCell id="5-WY05o-0gEn9RTZ0vw3-107" value="" style="endArrow=classic;startArrow=classic;html=1;rounded=0;dashed=1;strokeColor=default;align=center;verticalAlign=middle;fontFamily=Helvetica;fontSize=11;fontColor=default;labelBackgroundColor=default;" edge="1" parent="1">
          <mxGeometry width="50" height="50" relative="1" as="geometry">
            <mxPoint x="480" y="470" as="sourcePoint" />
            <mxPoint x="840" y="470" as="targetPoint" />
          </mxGeometry>
        </mxCell>
        <mxCell id="5-WY05o-0gEn9RTZ0vw3-108" value="&lt;span style=&quot;font-size: 11px;&quot;&gt;threads period tasks T&lt;/span&gt;" style="edgeLabel;html=1;align=center;verticalAlign=middle;resizable=0;points=[];fontFamily=Helvetica;fontSize=11;fontColor=default;labelBackgroundColor=default;" vertex="1" connectable="0" parent="5-WY05o-0gEn9RTZ0vw3-107">
          <mxGeometry x="0.0469" y="1" relative="1" as="geometry">
            <mxPoint as="offset" />
          </mxGeometry>
        </mxCell>
        <mxCell id="5-WY05o-0gEn9RTZ0vw3-109" value="" style="endArrow=classic;startArrow=classic;html=1;rounded=0;dashed=1;strokeColor=default;align=center;verticalAlign=middle;fontFamily=Helvetica;fontSize=11;fontColor=default;labelBackgroundColor=default;" edge="1" parent="1">
          <mxGeometry width="50" height="50" relative="1" as="geometry">
            <mxPoint x="120" y="470" as="sourcePoint" />
            <mxPoint x="480" y="470" as="targetPoint" />
          </mxGeometry>
        </mxCell>
        <mxCell id="5-WY05o-0gEn9RTZ0vw3-110" value="&lt;font style=&quot;font-size: 11px;&quot;&gt;threads period tasks T&lt;/font&gt;" style="edgeLabel;html=1;align=center;verticalAlign=middle;resizable=0;points=[];fontFamily=Helvetica;fontSize=11;fontColor=default;labelBackgroundColor=default;rounded=0;fontStyle=0;fillColor=none;gradientColor=none;" vertex="1" connectable="0" parent="5-WY05o-0gEn9RTZ0vw3-109">
          <mxGeometry x="-0.0798" y="-1" relative="1" as="geometry">
            <mxPoint as="offset" />
          </mxGeometry>
        </mxCell>
        <mxCell id="5-WY05o-0gEn9RTZ0vw3-111" value="&lt;font style=&quot;font-size: 21px;&quot; face=&quot;Segoe UI&quot;&gt;&lt;span style=&quot;white-space-collapse: preserve; background-color: rgb(255, 255, 255); font-size: 21px;&quot;&gt;SOFT-REALTIME scenario&lt;/span&gt;&lt;/font&gt;&lt;div&gt;&lt;font style=&quot;font-size: 21px;&quot; face=&quot;Segoe UI&quot;&gt;&lt;span style=&quot;white-space-collapse: preserve; background-color: rgb(255, 255, 255); font-size: 21px;&quot;&gt;(threads can suddenly sleep and wakeup latancy can be &lt;/span&gt;&lt;/font&gt;&lt;span style=&quot;background-color: rgb(255, 255, 255); font-family: &amp;quot;Segoe UI&amp;quot;; white-space-collapse: preserve;&quot;&gt;suddenly &lt;/span&gt;&lt;span style=&quot;background-color: rgb(255, 255, 255); white-space-collapse: preserve; font-family: &amp;quot;Segoe UI&amp;quot;;&quot;&gt;big &lt;/span&gt;&lt;span style=&quot;background-color: rgb(255, 255, 255); font-family: &amp;quot;Segoe UI&amp;quot;; white-space-collapse: preserve;&quot;&gt;rarely&lt;/span&gt;&lt;span style=&quot;background-color: rgb(255, 255, 255); font-family: &amp;quot;Segoe UI&amp;quot;; white-space-collapse: preserve;&quot;&gt;)&lt;/span&gt;&lt;/div&gt;" style="text;html=1;align=center;verticalAlign=middle;whiteSpace=wrap;rounded=0;fontFamily=Helvetica;fontSize=21;fontColor=default;fontStyle=1" vertex="1" parent="1">
          <mxGeometry x="-40" y="395" width="400" height="30" as="geometry" />
        </mxCell>
        <mxCell id="5-WY05o-0gEn9RTZ0vw3-113" value="data v2" style="html=1;whiteSpace=wrap;horizontal=1;dashed=1;" vertex="1" parent="1">
          <mxGeometry x="895" y="630" width="50" height="20" as="geometry" />
        </mxCell>
        <mxCell id="5-WY05o-0gEn9RTZ0vw3-114" value="data v1" style="html=1;whiteSpace=wrap;horizontal=1;dashed=1;" vertex="1" parent="1">
          <mxGeometry x="895" y="650" width="50" height="20" as="geometry" />
        </mxCell>
        <mxCell id="5-WY05o-0gEn9RTZ0vw3-116" value="" style="endArrow=none;dashed=1;html=1;dashPattern=1 3;strokeWidth=2;rounded=0;strokeColor=default;align=center;verticalAlign=middle;fontFamily=Helvetica;fontSize=11;fontColor=default;labelBackgroundColor=default;" edge="1" parent="1">
          <mxGeometry width="50" height="50" relative="1" as="geometry">
            <mxPoint x="140" y="860" as="sourcePoint" />
            <mxPoint x="140" y="660" as="targetPoint" />
          </mxGeometry>
        </mxCell>
        <mxCell id="5-WY05o-0gEn9RTZ0vw3-117" value="" style="endArrow=classic;startArrow=classic;html=1;rounded=0;dashed=1;strokeColor=default;align=center;verticalAlign=middle;fontFamily=Helvetica;fontSize=11;fontColor=default;labelBackgroundColor=default;" edge="1" parent="1">
          <mxGeometry width="50" height="50" relative="1" as="geometry">
            <mxPoint x="120" y="680" as="sourcePoint" />
            <mxPoint x="140" y="680" as="targetPoint" />
          </mxGeometry>
        </mxCell>
        <mxCell id="5-WY05o-0gEn9RTZ0vw3-119" value="" style="endArrow=classic;startArrow=classic;html=1;rounded=0;dashed=1;strokeColor=default;align=center;verticalAlign=middle;fontFamily=Helvetica;fontSize=11;fontColor=default;labelBackgroundColor=default;" edge="1" parent="1">
          <mxGeometry width="50" height="50" relative="1" as="geometry">
            <mxPoint x="480" y="680" as="sourcePoint" />
            <mxPoint x="850" y="680" as="targetPoint" />
          </mxGeometry>
        </mxCell>
        <mxCell id="5-WY05o-0gEn9RTZ0vw3-122" value="&lt;span style=&quot;white-space: pre-wrap; font-family: &amp;quot;Segoe UI&amp;quot;;&quot;&gt;suddenly &lt;/span&gt;&lt;span style=&quot;white-space: pre-wrap; font-family: &amp;quot;Segoe UI&amp;quot;;&quot;&gt;big &lt;/span&gt;&lt;font face=&quot;Segoe UI&quot; style=&quot;text-wrap: wrap; background-color: rgb(251, 251, 251);&quot;&gt;&lt;span style=&quot;white-space-collapse: preserve; background-color: rgb(255, 255, 255);&quot;&gt;wakeup latancy&lt;/span&gt;&lt;/font&gt;" style="edgeLabel;html=1;align=center;verticalAlign=middle;resizable=0;points=[];fontFamily=Helvetica;fontSize=11;fontColor=#FF0000;labelBackgroundColor=default;" vertex="1" connectable="0" parent="5-WY05o-0gEn9RTZ0vw3-119">
          <mxGeometry x="-0.0468" relative="1" as="geometry">
            <mxPoint as="offset" />
          </mxGeometry>
        </mxCell>
        <mxCell id="5-WY05o-0gEn9RTZ0vw3-120" value="" style="endArrow=none;dashed=1;html=1;dashPattern=1 3;strokeWidth=2;rounded=0;strokeColor=default;align=center;verticalAlign=middle;fontFamily=Helvetica;fontSize=11;fontColor=default;labelBackgroundColor=default;" edge="1" parent="1">
          <mxGeometry width="50" height="50" relative="1" as="geometry">
            <mxPoint x="850" y="860" as="sourcePoint" />
            <mxPoint x="850" y="660" as="targetPoint" />
          </mxGeometry>
        </mxCell>
        <mxCell id="5-WY05o-0gEn9RTZ0vw3-124" value="&lt;span style=&quot;color: rgb(0, 0, 0); font-family: &amp;quot;Segoe UI&amp;quot;; font-size: 11px; font-style: normal; font-variant-ligatures: normal; font-variant-caps: normal; font-weight: 400; letter-spacing: normal; orphans: 2; text-align: center; text-indent: 0px; text-transform: none; widows: 2; word-spacing: 0px; -webkit-text-stroke-width: 0px; white-space: pre-wrap; background-color: rgb(255, 255, 255); text-decoration-thickness: initial; text-decoration-style: initial; text-decoration-color: initial; display: inline !important; float: none;&quot;&gt;normal wakeup latancy&lt;/span&gt;" style="text;whiteSpace=wrap;html=1;fontFamily=Helvetica;fontSize=11;fontColor=default;labelBackgroundColor=default;" vertex="1" parent="1">
          <mxGeometry x="120" y="640" width="110" height="40" as="geometry" />
        </mxCell>
      </root>
    </mxGraphModel>
  </diagram>
</mxfile>
